<svg width="3640" height="2160" viewBox="0 0 3640 2160" fill="none" xmlns="http://www.w3.org/2000/svg">
<g clip-path="url(#clip0_50_2)">
<path d="M2794.59 741.677L2983.77 676.785L3237.84 801.072M2794.59 741.677L2859.48 930.857M2794.59 741.677L3048.66 865.964M3462.22 1146.99L3491.91 925.36L3237.84 801.072M3462.22 1146.99L3527.11 1336.17M3462.22 1146.99L3255.44 1006.47M3527.11 1336.17L3337.93 1401.06L3083.86 1276.77M3527.11 1336.17L3273.04 1211.88M2859.48 930.857L2829.78 1152.48L3083.86 1276.77M2859.48 930.857L3066.26 1071.37M3083.86 1276.77L3273.04 1211.88M3083.86 1276.77L3066.26 1071.37M3048.66 865.964L3237.84 801.072M3048.66 865.964L3066.26 1071.37M3237.84 801.072L3255.44 1006.47M3273.04 1211.88L3255.44 1006.47M3066.26 1071.37L3255.44 1006.47" stroke="url(#paint0_linear_50_2)" stroke-width="2"/>
<path d="M1276.49 1042.49L1469.48 989.995L1714.97 1130.48M1276.49 1042.49L1328.99 1235.48M1276.49 1042.49L1521.98 1182.98M1916.45 1490.21L1960.45 1270.97L1714.97 1130.48M1916.45 1490.21L1968.95 1683.2M1916.45 1490.21L1719.22 1336.6M1968.95 1683.2L1775.96 1735.69L1530.48 1595.21M1968.95 1683.2L1723.47 1542.71M1328.99 1235.48L1285 1454.72L1530.48 1595.21M1328.99 1235.48L1526.23 1389.09M1530.48 1595.21L1723.47 1542.71M1530.48 1595.21L1526.23 1389.09M1521.98 1182.98L1714.97 1130.48M1521.98 1182.98L1526.23 1389.09M1714.97 1130.48L1719.22 1336.6M1723.47 1542.71L1719.22 1336.6M1526.23 1389.09L1719.22 1336.6" stroke="url(#paint1_linear_50_2)" stroke-width="2"/>
<path d="M629.553 1138.73L772.899 1278.2L776.775 1561.02M629.553 1138.73L490.083 1282.08M629.553 1138.73L633.429 1421.55M569.509 1917.45L780.652 1843.84L776.775 1561.02M569.509 1917.45L430.039 2060.79M569.509 1917.45L601.469 1669.5M430.039 2060.79L286.693 1921.32L282.816 1638.51M430.039 2060.79L426.162 1777.98M490.083 1282.08L278.94 1355.69L282.816 1638.51M490.083 1282.08L458.123 1530.03M282.816 1638.51L426.162 1777.98M282.816 1638.51L458.123 1530.03M633.429 1421.55L776.775 1561.02M633.429 1421.55L458.123 1530.03M776.775 1561.02L601.469 1669.5M426.162 1777.98L601.469 1669.5M458.123 1530.03L601.469 1669.5" stroke="url(#paint2_linear_50_2)" stroke-width="2"/>
<path d="M2050.87 57.0754L2249.41 81.2262L2423.79 303.914M2050.87 57.0754L2026.72 255.612M2050.87 57.0754L2225.26 279.763M2474.76 713.062L2598.18 526.601L2423.79 303.914M2474.76 713.062L2450.61 911.598M2474.76 713.062L2350.01 496.412M2450.61 911.598L2252.07 887.448L2077.69 664.76M2450.61 911.598L2276.22 688.911M2026.72 255.612L1903.3 442.073L2077.69 664.76M2026.72 255.612L2151.47 472.261M2077.69 664.76L2276.22 688.911M2077.69 664.76L2151.47 472.261M2225.26 279.763L2423.79 303.914M2225.26 279.763L2151.47 472.261M2423.79 303.914L2350.01 496.412M2276.22 688.911L2350.01 496.412M2151.47 472.261L2350.01 496.412" stroke="url(#paint3_linear_50_2)" stroke-width="2"/>
<path d="M938.668 -67.9044L1120 -152.27L1385.7 -55.2994M938.668 -67.9044L1023.03 113.431M938.668 -67.9044L1204.37 29.0658M1645.1 265.189L1651.4 41.6707L1385.7 -55.2994M1645.1 265.189L1729.47 446.524M1645.1 265.189L1424.73 147.127M1729.47 446.524L1548.13 530.889L1282.43 433.919M1729.47 446.524L1463.77 349.554M1023.03 113.431L1016.73 336.949L1282.43 433.919M1023.03 113.431L1243.4 231.492M1282.43 433.919L1463.77 349.554M1282.43 433.919L1243.4 231.492M1204.37 29.0658L1385.7 -55.2994M1204.37 29.0658L1243.4 231.492M1385.7 -55.2994L1424.73 147.127M1463.77 349.554L1424.73 147.127M1243.4 231.492L1424.73 147.127" stroke="url(#paint4_linear_50_2)" stroke-width="2"/>
<path d="M2396 1200H2596L2796 1400M2396 1200V1400M2396 1200L2596 1400M2896 1800L2996 1600L2796 1400M2896 1800V2000M2896 1800L2746 1600M2896 2000H2696L2496 1800M2896 2000L2696 1800M2396 1400L2296 1600L2496 1800M2396 1400L2546 1600M2496 1800H2696M2496 1800L2546 1600M2596 1400H2796M2596 1400L2546 1600M2796 1400L2746 1600M2696 1800L2746 1600M2546 1600H2746" stroke="url(#paint5_linear_50_2)" stroke-width="2"/>
<path d="M-287.131 269.068L-92.6094 222.579L148.402 370.611M-287.131 269.068L-240.642 463.59M-287.131 269.068L-46.1199 417.101M338.642 736.41L389.413 518.643L148.402 370.611M338.642 736.41L385.131 930.932M338.642 736.41L146.261 576.755M385.131 930.932L190.61 977.421L-50.4018 829.389M385.131 930.932L144.12 782.899M-240.642 463.59L-291.413 681.357L-50.4018 829.389M-240.642 463.59L-48.2608 623.245M-50.4018 829.389L144.12 782.899M-50.4018 829.389L-48.2608 623.245M-46.1199 417.101L148.402 370.611M-46.1199 417.101L-48.2608 623.245M148.402 370.611L146.261 576.755M144.12 782.899L146.261 576.755M-48.2608 623.245L146.261 576.755" stroke="url(#paint6_linear_50_2)" stroke-width="2"/>
<path d="M3091.98 439.179L3209.7 163.239L3058.86 261.97M3334.8 379.687L3196.83 320.828L3347.67 222.098L3229.95 498.037" stroke="url(#paint7_linear_50_2)" stroke-width="2"/>
<path d="M904.318 941.837L792.84 663.319L755.739 839.738M1034.26 728.259L894.998 783.998L932.099 607.58L1043.58 886.098" stroke="url(#paint8_linear_50_2)" stroke-width="2"/>
</g>
<defs>
<linearGradient id="paint0_linear_50_2" x1="2700" y1="774.123" x2="3519.33" y2="1425.71" gradientUnits="userSpaceOnUse">
<stop stop-color="#005999"/>
<stop offset="0.5" stop-color="#39ACFF"/>
<stop offset="1" stop-color="#75C5FF"/>
</linearGradient>
<linearGradient id="paint1_linear_50_2" x1="1180" y1="1068.74" x2="1955.39" y2="1772.05" gradientUnits="userSpaceOnUse">
<stop stop-color="#005999"/>
<stop offset="0.5" stop-color="#39ACFF"/>
<stop offset="1" stop-color="#75C5FF"/>
</linearGradient>
<linearGradient id="paint2_linear_50_2" x1="557.88" y1="1069" x2="346.637" y2="2094.3" gradientUnits="userSpaceOnUse">
<stop stop-color="#005999"/>
<stop offset="0.5" stop-color="#39ACFF"/>
<stop offset="1" stop-color="#75C5FF"/>
</linearGradient>
<linearGradient id="paint3_linear_50_2" x1="1951.6" y1="45" x2="2404.54" y2="988.778" gradientUnits="userSpaceOnUse">
<stop stop-color="#005999"/>
<stop offset="0.5" stop-color="#39ACFF"/>
<stop offset="1" stop-color="#75C5FF"/>
</linearGradient>
<linearGradient id="paint4_linear_50_2" x1="848" y1="-25.7218" x2="1731.12" y2="536.39" gradientUnits="userSpaceOnUse">
<stop stop-color="#005999"/>
<stop offset="0.5" stop-color="#39ACFF"/>
<stop offset="1" stop-color="#75C5FF"/>
</linearGradient>
<linearGradient id="paint5_linear_50_2" x1="2296" y1="1200" x2="2859.59" y2="2082.18" gradientUnits="userSpaceOnUse">
<stop stop-color="#005999"/>
<stop offset="0.5" stop-color="#39ACFF"/>
<stop offset="1" stop-color="#75C5FF"/>
</linearGradient>
<linearGradient id="paint6_linear_50_2" x1="-384.392" y1="292.313" x2="368.822" y2="1019.32" gradientUnits="userSpaceOnUse">
<stop stop-color="#005999"/>
<stop offset="0.5" stop-color="#39ACFF"/>
<stop offset="1" stop-color="#75C5FF"/>
</linearGradient>
<linearGradient id="paint7_linear_50_2" x1="3117.72" y1="124" x2="3160.94" y2="528.315" gradientUnits="userSpaceOnUse">
<stop stop-color="#005999"/>
<stop offset="0.5" stop-color="#39ACFF"/>
<stop offset="1" stop-color="#75C5FF"/>
</linearGradient>
<linearGradient id="paint8_linear_50_2" x1="700" y1="700.478" x2="1016.09" y2="956.265" gradientUnits="userSpaceOnUse">
<stop stop-color="#005999"/>
<stop offset="0.5" stop-color="#39ACFF"/>
<stop offset="1" stop-color="#75C5FF"/>
</linearGradient>
<clipPath id="clip0_50_2">
<rect width="3640" height="2160" fill="white"/>
</clipPath>
</defs>
</svg>
