<svg width="1920" height="1080" viewBox="0 0 1920 1080" fill="none" xmlns="http://www.w3.org/2000/svg">
<g clip-path="url(#clip0_50_2)">
<path d="M600 100H800L1000 300M600 100V300M600 100L800 300M1100 700L1200 500L1000 300M1100 700V900M1100 700L950 500M1100 900H900L700 700M1100 900L900 700M600 300L500 500L700 700M600 300L750 500M700 700H900M700 700L750 500M800 300H1000M800 300L750 500M1000 300L950 500M900 700L950 500M750 500H950" stroke="url(#paint0_linear_50_2)" stroke-width="2"/>
<path d="M1300 800H1500L1700 1000M1300 800V1000M1300 800L1500 1000M1800 1400L1900 1200L1700 1000M1800 1400V1600M1800 1400L1650 1200M1800 1600H1600L1400 1400M1800 1600L1600 1400M1300 1000L1200 1200L1400 1400M1300 1000L1450 1200M1400 1400H1600M1400 1400L1450 1200M1500 1000H1700M1500 1000L1450 1200M1700 1000L1650 1200M1600 1400L1650 1200M1450 1200H1650" stroke="url(#paint1_linear_50_2)" stroke-width="2"/>
<path d="M1320 -400H1520L1720 -200M1320 -400V-200M1320 -400L1520 -200M1820 200L1920 0L1720 -200M1820 200V400M1820 200L1670 0M1820 400H1620L1420 200M1820 400L1620 200M1320 -200L1220 0L1420 200M1320 -200L1470 0M1420 200H1620M1420 200L1470 0M1520 -200H1720M1520 -200L1470 0M1720 -200L1670 0M1620 200L1670 0M1470 0H1670" stroke="url(#paint2_linear_50_2)" stroke-width="2"/>
<path d="M-201 200H-1L199 400M-201 200V400M-201 200L-1 400M299 800L399 600L199 400M299 800V1000M299 800L149 600M299 1000H99L-101 800M299 1000L99 800M-201 400L-301 600L-101 800M-201 400L-51 600M-101 800H99M-101 800L-51 600M-1 400H199M-1 400L-51 600M199 400L149 600M99 800L149 600M-51 600H149" stroke="url(#paint3_linear_50_2)" stroke-width="2"/>
</g>
<defs>
<linearGradient id="paint0_linear_50_2" x1="500" y1="100" x2="1063.59" y2="982.177" gradientUnits="userSpaceOnUse">
<stop stop-color="#005999"/>
<stop offset="0.5" stop-color="#39ACFF"/>
<stop offset="1" stop-color="#75C5FF"/>
</linearGradient>
<linearGradient id="paint1_linear_50_2" x1="1200" y1="800" x2="1763.59" y2="1682.18" gradientUnits="userSpaceOnUse">
<stop stop-color="#005999"/>
<stop offset="0.5" stop-color="#39ACFF"/>
<stop offset="1" stop-color="#75C5FF"/>
</linearGradient>
<linearGradient id="paint2_linear_50_2" x1="1220" y1="-400" x2="1783.59" y2="482.177" gradientUnits="userSpaceOnUse">
<stop stop-color="#005999"/>
<stop offset="0.5" stop-color="#39ACFF"/>
<stop offset="1" stop-color="#75C5FF"/>
</linearGradient>
<linearGradient id="paint3_linear_50_2" x1="-301" y1="200" x2="262.592" y2="1082.18" gradientUnits="userSpaceOnUse">
<stop stop-color="#005999"/>
<stop offset="0.5" stop-color="#39ACFF"/>
<stop offset="1" stop-color="#75C5FF"/>
</linearGradient>
<clipPath id="clip0_50_2">
<rect width="1920" height="1080" fill="white"/>
</clipPath>
</defs>
</svg>
