<svg width="272" height="68" viewBox="0 0 272 68" fill="none" xmlns="http://www.w3.org/2000/svg">
<path d="M31.6189 0.000523481C28.9799 0.0126516 26.4597 0.235261 24.2422 0.62336C17.7098 1.76483 16.5237 4.15401 16.5237 8.56008V14.3791H31.9608V16.3188H16.5237H10.7304C6.24394 16.3188 2.3155 18.986 1.08673 24.0598C-0.330638 29.8756 -0.393506 33.5047 1.08673 39.5773C2.18405 44.0975 4.80459 47.3183 9.29102 47.3183H14.5986V40.3425C14.5986 35.3029 19.0071 30.8576 24.2422 30.8576H39.6613C43.9534 30.8576 47.3798 27.3622 47.3798 23.0989V8.56008C47.3798 4.42226 43.8505 1.31395 39.6613 0.62336C37.0094 0.186748 34.2579 -0.0116048 31.6189 0.000523481ZM23.2707 4.68069C24.8652 4.68069 26.1674 5.98966 26.1674 7.59913C26.1674 9.20289 24.8652 10.4998 23.2707 10.4998C21.6704 10.4998 20.374 9.20289 20.374 7.59913C20.374 5.98966 21.6704 4.68069 23.2707 4.68069Z" fill="url(#paint0_linear_60_25)"/>
<path d="M49.3049 16.3188V23.0989C49.3049 28.3553 44.7992 32.7795 39.6613 32.7795H24.2422C20.0187 32.7795 16.5237 36.3548 16.5237 40.5383V55.0771C16.5237 59.2149 20.1616 61.6487 24.2422 62.8358C29.1287 64.257 33.8146 64.5138 39.6613 62.8358C43.5476 61.7229 47.3798 59.4831 47.3798 55.0771V49.258H31.9608V47.3183H47.3798H55.0983C59.5847 47.3183 61.2565 44.2231 62.8168 39.5773C64.4285 34.7946 64.3599 30.1952 62.8168 24.0598C61.708 19.6423 59.5904 16.3188 55.0983 16.3188H49.3049ZM40.6328 53.1374C42.2331 53.1374 43.5295 54.4343 43.5295 56.038C43.5295 57.6475 42.2331 58.9564 40.6328 58.9564C39.0383 58.9564 37.7361 57.6475 37.7361 56.038C37.7361 54.4343 39.0383 53.1374 40.6328 53.1374Z" fill="url(#paint1_linear_60_25)"/>
<g clip-path="url(#clip0_60_25)">
<path d="M269 0H211C209.343 0 208 1.34315 208 3V61C208 62.6569 209.343 64 211 64H269C270.657 64 272 62.6569 272 61V3C272 1.34315 270.657 0 269 0Z" fill="#3178C6"/>
<path fill-rule="evenodd" clip-rule="evenodd" d="M245.131 49.734V56.747C246.267 57.331 247.611 57.7695 249.162 58.0615C250.714 58.354 252.349 58.5 254.068 58.5C255.743 58.5 257.334 58.3395 258.841 58.018C260.349 57.6965 261.671 57.167 262.807 56.429C263.943 55.691 264.843 54.727 265.506 53.536C266.169 52.3455 266.5 50.8735 266.5 49.1203C266.5 47.8493 266.31 46.7353 265.932 45.7783C265.553 44.8214 265.007 43.9704 264.293 43.2252C263.579 42.4801 262.724 41.8117 261.726 41.22C260.728 40.6283 259.603 40.0694 258.35 39.5435C257.432 39.1636 256.609 38.7947 255.881 38.4368C255.153 38.0788 254.534 37.7136 254.024 37.341C253.514 36.9684 253.121 36.574 252.844 36.1576C252.567 35.7413 252.429 35.27 252.429 34.7441C252.429 34.2619 252.553 33.8273 252.8 33.4402C253.048 33.053 253.398 32.7206 253.849 32.443C254.301 32.1655 254.854 31.95 255.51 31.7966C256.165 31.6431 256.893 31.5664 257.695 31.5664C258.277 31.5664 258.893 31.6103 259.541 31.6979C260.189 31.7856 260.841 31.9207 261.496 32.1034C262.152 32.286 262.789 32.5161 263.409 32.7937C264.028 33.0713 264.599 33.3927 265.124 33.7579V27.2054C264.06 26.7963 262.899 26.4931 261.639 26.2959C260.379 26.0986 258.933 26 257.301 26C255.641 26 254.068 26.1789 252.582 26.5369C251.096 26.8948 249.789 27.4537 248.66 28.2134C247.531 28.9731 246.639 29.941 245.983 31.1171C245.328 32.2932 245 33.6995 245 35.3358C245 37.4251 245.601 39.2074 246.803 40.683C248.004 42.1587 249.829 43.4078 252.276 44.4305C253.237 44.825 254.133 45.2122 254.963 45.592C255.794 45.9719 256.511 46.3664 257.116 46.7755C257.72 47.1846 258.197 47.6302 258.547 48.1123C258.897 48.5944 259.071 49.1423 259.071 49.7559C259.071 50.209 258.962 50.629 258.743 51.016C258.525 51.403 258.193 51.739 257.749 52.024C257.305 52.309 256.751 52.532 256.089 52.6925C255.426 52.853 254.65 52.9335 253.762 52.9335C252.247 52.9335 250.746 52.667 249.261 52.1335C247.775 51.6005 246.398 50.8005 245.131 49.734ZM233.351 32.2772H242.5V26.5H217V32.2772H226.104V58H233.351V32.2772Z" fill="white"/>
</g>
<path d="M136 4.19434C119.568 4.19434 106.194 17.5744 106.194 34C106.194 50.4257 119.574 63.8058 136 63.8058C152.426 63.8058 165.806 50.4257 165.806 34C165.806 17.5744 152.426 4.19434 136 4.19434ZM135.956 6.84261C136.466 6.85581 136.95 7.06823 137.306 7.43456C137.661 7.8009 137.86 8.29216 137.86 8.8036C137.86 9.32368 137.654 9.82247 137.286 10.1902C136.918 10.558 136.419 10.7646 135.899 10.7646C135.379 10.7646 134.88 10.558 134.513 10.1902C134.145 9.82247 133.938 9.32368 133.938 8.8036C133.938 8.54123 133.991 8.28151 134.093 8.03982C134.195 7.79812 134.344 7.57937 134.532 7.39652C134.721 7.21366 134.944 7.07042 135.188 6.97527C135.433 6.88013 135.694 6.83502 135.956 6.84261ZM140.445 10.071C143.888 10.7158 147.149 12.1022 150.002 14.134C152.854 16.1659 155.231 18.7943 156.966 21.8369L154.651 27.0578C154.254 27.9595 154.664 29.0188 155.559 29.4223L160.011 31.3959C160.149 32.7874 160.166 34.1883 160.062 35.5827H157.583C157.338 35.5827 157.237 35.7466 157.237 35.9863V37.1212C157.237 39.7947 155.73 40.3811 154.406 40.5262C153.144 40.6712 151.751 39.9965 151.574 39.2272C150.83 35.0467 149.595 34.1577 147.64 32.6129C150.067 31.0743 152.59 28.7981 152.59 25.7589C152.59 22.4737 150.339 20.4056 148.806 19.3904C146.65 17.9717 144.266 17.6879 143.623 17.6879H118.023C121.563 13.7334 126.308 11.0563 131.523 10.071L134.543 13.2363C135.224 13.9488 136.353 13.9803 137.066 13.2931L140.445 10.071ZM112.575 24.5861C113.086 24.6008 113.57 24.8139 113.926 25.1801C114.281 25.5463 114.48 26.0366 114.48 26.547C114.48 27.0671 114.273 27.5659 113.905 27.9337C113.538 28.3014 113.039 28.508 112.519 28.508C111.999 28.508 111.5 28.3014 111.132 27.9337C110.764 27.5659 110.558 27.0671 110.558 26.547C110.558 26.2847 110.61 26.025 110.712 25.7833C110.814 25.5416 110.964 25.3228 111.152 25.14C111.34 24.9571 111.563 24.8139 111.808 24.7187C112.052 24.6236 112.313 24.5785 112.575 24.5861ZM159.33 24.6743C159.84 24.6891 160.325 24.9022 160.68 25.2684C161.036 25.6345 161.235 26.1249 161.234 26.6353C161.234 27.1554 161.028 27.6542 160.66 28.0219C160.292 28.3897 159.793 28.5963 159.273 28.5963C158.753 28.5963 158.254 28.3897 157.887 28.0219C157.519 27.6542 157.312 27.1554 157.312 26.6353C157.312 26.373 157.365 26.1132 157.467 25.8715C157.569 25.6298 157.718 25.4111 157.907 25.2282C158.095 25.0454 158.318 24.9021 158.562 24.807C158.807 24.7119 159.068 24.6667 159.33 24.6743ZM116.27 24.9896H119.688V40.4H112.79C111.938 37.4084 111.672 34.2803 112.008 31.1878L116.233 29.3088C117.134 28.9053 117.544 27.8523 117.141 26.9506L116.27 24.9896ZM130.533 25.1535H138.674C139.096 25.1535 141.643 25.6391 141.643 27.5496C141.643 29.1323 139.689 29.6998 138.081 29.6998H130.527L130.533 25.1535ZM130.533 36.2259H136.769C137.337 36.2259 139.815 36.3898 140.603 39.5551C140.849 40.5262 141.397 43.6915 141.77 44.7067C142.142 45.8416 143.649 48.1116 145.256 48.1116H155.433C154.751 49.025 154.005 49.8889 153.201 50.6968L149.059 49.8077C148.094 49.5997 147.142 50.2176 146.934 51.1823L145.95 55.7727C142.787 57.2055 139.352 57.9388 135.879 57.9225C132.407 57.9062 128.979 57.1406 125.829 55.6781L124.846 51.0877C124.638 50.123 123.692 49.5051 122.727 49.7132L118.673 50.5833C117.92 49.8072 117.221 48.9814 116.579 48.1116H136.296C136.517 48.1116 136.668 48.0737 136.668 47.8657V40.8919C136.668 40.6901 136.517 40.646 136.296 40.646H130.527L130.533 36.2259ZM121.435 52.1975C121.945 52.2123 122.429 52.4254 122.785 52.7915C123.14 53.1577 123.339 53.6481 123.339 54.1585C123.339 54.6786 123.132 55.1773 122.764 55.5451C122.397 55.9129 121.898 56.1195 121.378 56.1195C120.858 56.1195 120.359 55.9129 119.991 55.5451C119.623 55.1773 119.417 54.6786 119.417 54.1585C119.417 53.8961 119.469 53.6364 119.571 53.3947C119.673 53.153 119.823 52.9342 120.011 52.7514C120.199 52.5685 120.422 52.4253 120.667 52.3301C120.911 52.235 121.172 52.1899 121.435 52.1975ZM150.471 52.2858C150.981 52.3005 151.466 52.5136 151.821 52.8798C152.177 53.246 152.375 53.7363 152.375 54.2467C152.375 54.7668 152.169 55.2656 151.801 55.6334C151.433 56.0011 150.934 56.2077 150.414 56.2077C149.894 56.2077 149.395 56.0011 149.028 55.6334C148.66 55.2656 148.453 54.7668 148.453 54.2467C148.453 53.9844 148.506 53.7247 148.608 53.483C148.71 53.2413 148.859 53.0225 149.048 52.8397C149.236 52.6568 149.459 52.5136 149.703 52.4184C149.948 52.3233 150.209 52.2782 150.471 52.2858Z" fill="black"/>
<path fill-rule="evenodd" clip-rule="evenodd" d="M164.141 34C164.141 41.4635 161.176 48.6213 155.899 53.8988C150.621 59.1762 143.463 62.1411 136 62.1411C128.537 62.1411 121.379 59.1762 116.101 53.8988C110.824 48.6213 107.859 41.4635 107.859 34C107.859 26.5365 110.824 19.3787 116.101 14.1012C121.379 8.82377 128.537 5.85892 136 5.85892C143.463 5.85892 150.621 8.82377 155.899 14.1012C161.176 19.3787 164.141 26.5365 164.141 34ZM163.611 31.2824L168 34L163.611 36.7176L167.382 40.2424L162.552 42.052L165.566 46.2451L160.465 47.0774L162.609 51.7813L157.445 51.5984L158.63 56.6301L153.598 55.4447L153.781 60.6089L149.077 58.465L148.245 63.5661L144.052 60.5521L142.242 65.3821L138.718 61.6114L136 66L133.282 61.6114L129.758 65.3821L127.948 60.5521L123.755 63.5661L122.923 58.465L118.219 60.6089L118.402 55.4447L113.37 56.6301L114.555 51.5984L109.391 51.7813L111.535 47.0774L106.434 46.2451L109.448 42.052L104.618 40.2424L108.389 36.7176L104 34L108.389 31.2824L104.618 27.7576L109.448 25.948L106.434 21.7549L111.535 20.9226L109.391 16.2187L114.555 16.4016L113.37 11.3699L118.402 12.5553L118.219 7.39113L122.923 9.53498L123.755 4.43389L127.948 7.44788L129.758 2.61793L133.282 6.38857L136 2L138.718 6.38857L142.242 2.61793L144.052 7.44788L148.245 4.43389L149.077 9.53498L153.781 7.39113L153.598 12.5553L158.63 11.3699L157.445 16.4016L162.609 16.2187L160.465 20.9226L165.566 21.7549L162.552 25.948L167.382 27.7576L163.611 31.2824Z" fill="black" stroke="black" stroke-width="3" stroke-linecap="round" stroke-linejoin="round"/>
<defs>
<linearGradient id="paint0_linear_60_25" x1="-1.92313e-07" y1="-1.65232e-07" x2="35.2666" y2="30.3839" gradientUnits="userSpaceOnUse">
<stop stop-color="#5A9FD4"/>
<stop offset="1" stop-color="#306998"/>
</linearGradient>
<linearGradient id="paint1_linear_60_25" x1="40.2619" y1="55.5488" x2="27.6766" y2="37.7182" gradientUnits="userSpaceOnUse">
<stop stop-color="#FFD43B"/>
<stop offset="1" stop-color="#FFE873"/>
</linearGradient>
<clipPath id="clip0_60_25">
<rect width="64" height="64" fill="white" transform="translate(208)"/>
</clipPath>
</defs>
</svg>
