<svg width="68" height="68" viewBox="0 0 68 68" fill="none" xmlns="http://www.w3.org/2000/svg">
<path d="M34.3 4.39429C17.8681 4.39429 4.49432 17.7744 4.49432 34.2C4.49432 50.6256 17.8744 64.0057 34.3 64.0057C50.7257 64.0057 64.1058 50.6256 64.1058 34.2C64.1058 17.7744 50.7257 4.39429 34.3 4.39429ZM34.2559 7.04256C34.7655 7.05576 35.2498 7.26818 35.6056 7.63451C35.9613 8.00085 36.1603 8.49211 36.1601 9.00355C36.1601 9.52363 35.9535 10.0224 35.5858 10.3902C35.218 10.7579 34.7192 10.9645 34.1992 10.9645C33.6791 10.9645 33.1803 10.7579 32.8125 10.3902C32.4448 10.0224 32.2382 9.52363 32.2382 9.00355C32.2381 8.74118 32.2906 8.48146 32.3927 8.23977C32.4948 7.99807 32.6443 7.77932 32.8324 7.59647C33.0206 7.41361 33.2435 7.27037 33.488 7.17523C33.7325 7.08008 33.9936 7.03497 34.2559 7.04256ZM38.7454 10.2709C42.1879 10.9157 45.4488 12.3022 48.3016 14.334C51.1544 16.3658 53.5308 18.9943 55.2656 22.0368L52.9515 27.2577C52.5542 28.1594 52.9641 29.2187 53.8594 29.6223L58.3111 31.5959C58.4492 32.9874 58.466 34.3882 58.3615 35.7827H55.8835C55.6376 35.7827 55.5367 35.9466 55.5367 36.1862V37.3212C55.5367 39.9947 54.0297 40.5811 52.7056 40.7261C51.4445 40.8711 50.051 40.1965 49.8744 39.4272C49.1304 35.2467 47.8945 34.3576 45.9398 32.8128C48.3674 31.2743 50.8896 28.998 50.8896 25.9588C50.8896 22.6737 48.6386 20.6055 47.1063 19.5903C44.9499 18.1716 42.5664 17.8879 41.9233 17.8879H16.3233C19.8632 13.9334 24.608 11.2562 29.8232 10.2709L32.8435 13.4363C33.5245 14.1488 34.6531 14.1803 35.3657 13.493L38.7454 10.2709ZM10.8754 24.786C11.3856 24.8008 11.8699 25.0139 12.2255 25.3801C12.5811 25.7462 12.7799 26.2366 12.7796 26.747C12.7796 27.2671 12.573 27.7659 12.2053 28.1336C11.8375 28.5014 11.3387 28.708 10.8187 28.708C10.2986 28.708 9.79979 28.5014 9.43203 28.1336C9.06428 27.7659 8.85767 27.2671 8.85767 26.747C8.85756 26.4846 8.9101 26.2249 9.01218 25.9832C9.11426 25.7415 9.2638 25.5228 9.45195 25.3399C9.6401 25.1571 9.86302 25.0138 10.1075 24.9187C10.352 24.8235 10.6132 24.7784 10.8754 24.786ZM57.6301 24.8743C58.1403 24.8891 58.6246 25.1022 58.9802 25.4683C59.3357 25.8345 59.5345 26.3249 59.5343 26.8353C59.5343 27.3554 59.3277 27.8541 58.96 28.2219C58.5922 28.5897 58.0934 28.7963 57.5733 28.7963C57.0533 28.7963 56.5545 28.5897 56.1867 28.2219C55.819 27.8541 55.6124 27.3554 55.6124 26.8353C55.6122 26.5729 55.6648 26.3132 55.7669 26.0715C55.8689 25.8298 56.0185 25.611 56.2066 25.4282C56.3948 25.2453 56.6177 25.1021 56.8622 25.0069C57.1067 24.9118 57.3678 24.8667 57.6301 24.8743ZM14.5704 25.1896H17.9879V40.6H11.0898C10.2379 37.6084 9.97236 34.4802 10.3079 31.3878L14.5326 29.5088C15.4342 29.1052 15.8441 28.0522 15.4405 27.1505L14.5704 25.1896ZM28.8332 25.3535H36.9735C37.396 25.3535 39.9434 25.839 39.9434 27.7496C39.9434 29.3322 37.9887 29.8997 36.3808 29.8997H28.8269L28.8332 25.3535ZM28.8332 36.4258H35.0693C35.6368 36.4258 38.1148 36.5898 38.903 39.7551C39.1489 40.7261 39.6975 43.8914 40.0695 44.9066C40.4415 46.0416 41.9485 48.3115 43.5564 48.3115H53.7333C53.0513 49.2249 52.3054 50.0888 51.5012 50.8967L47.3586 50.0077C46.3938 49.7996 45.4417 50.4175 45.2336 51.3823L44.25 55.9726C41.0869 57.4055 37.6518 58.1388 34.1794 58.1225C30.7069 58.1061 27.2789 57.3406 24.1294 55.878L23.1458 51.2877C22.9377 50.323 21.9919 49.705 21.0271 49.9131L16.9727 50.7833C16.2204 50.0072 15.521 49.1814 14.8793 48.3115H34.5964C34.8171 48.3115 34.9684 48.2737 34.9684 48.0656V41.0918C34.9684 40.89 34.8171 40.8459 34.5964 40.8459H28.8269L28.8332 36.4258ZM19.7345 52.3974C20.2447 52.4122 20.729 52.6253 21.0846 52.9915C21.4402 53.3576 21.639 53.848 21.6388 54.3584C21.6388 54.8785 21.4322 55.3773 21.0644 55.7451C20.6966 56.1128 20.1979 56.3194 19.6778 56.3194C19.1577 56.3194 18.6589 56.1128 18.2911 55.7451C17.9234 55.3773 17.7168 54.8785 17.7168 54.3584C17.7167 54.0961 17.7692 53.8363 17.8713 53.5946C17.9734 53.353 18.1229 53.1342 18.3111 52.9513C18.4992 52.7685 18.7221 52.6252 18.9666 52.5301C19.2112 52.435 19.4723 52.3898 19.7345 52.3974ZM48.771 52.4857C49.2812 52.5005 49.7655 52.7136 50.1211 53.0798C50.4766 53.4459 50.6754 53.9363 50.6752 54.4467C50.6752 54.9668 50.4686 55.4656 50.1009 55.8333C49.7331 56.2011 49.2343 56.4077 48.7142 56.4077C48.1941 56.4077 47.6954 56.2011 47.3276 55.8333C46.9598 55.4656 46.7532 54.9668 46.7532 54.4467C46.7531 54.1843 46.8057 53.9246 46.9078 53.6829C47.0098 53.4412 47.1594 53.2225 47.3475 53.0396C47.5357 52.8568 47.7586 52.7135 48.0031 52.6184C48.2476 52.5232 48.5087 52.4781 48.771 52.4857Z" fill="black"/>
<path fill-rule="evenodd" clip-rule="evenodd" d="M62.4411 34.1999C62.4411 41.6634 59.4762 48.8212 54.1987 54.0987C48.9213 59.3762 41.7635 62.341 34.3 62.341C26.8365 62.341 19.6787 59.3762 14.4012 54.0987C9.12376 48.8212 6.1589 41.6634 6.1589 34.1999C6.1589 26.7365 9.12376 19.5787 14.4012 14.3012C19.6787 9.02372 26.8365 6.05887 34.3 6.05887C41.7635 6.05887 48.9213 9.02372 54.1987 14.3012C59.4762 19.5787 62.4411 26.7365 62.4411 34.1999ZM61.9114 31.4823L66.3 34.1999L61.9114 36.9176L65.6821 40.4423L60.8521 42.252L63.8661 46.4451L58.765 47.2774L60.9089 51.9812L55.7447 51.7984L56.9301 56.8301L51.8984 55.6447L52.0813 60.8088L47.3774 58.665L46.5451 63.7661L42.352 60.7521L40.5424 65.582L37.0176 61.8114L34.3 66.2L31.5824 61.8114L28.0576 65.582L26.248 60.7521L22.0549 63.7661L21.2226 58.665L16.5187 60.8088L16.7016 55.6447L11.6698 56.8301L12.8553 51.7984L7.69112 51.9812L9.83496 47.2774L4.73388 46.4451L7.74787 42.252L2.91792 40.4423L6.68856 36.9176L2.29999 34.1999L6.68856 31.4823L2.91792 27.9576L7.74787 26.1479L4.73388 21.9548L9.83496 21.1225L7.69112 16.4187L12.8553 16.6015L11.6698 11.5698L16.7016 12.7552L16.5187 7.59108L21.2226 9.73493L22.0549 4.63384L26.248 7.64783L28.0576 2.81788L31.5824 6.58852L34.3 2.19995L37.0176 6.58852L40.5424 2.81788L42.352 7.64783L46.5451 4.63384L47.3774 9.73493L52.0813 7.59108L51.8984 12.7552L56.9301 11.5698L55.7447 16.6015L60.9089 16.4187L58.765 21.1225L63.8661 21.9548L60.8521 26.1479L65.6821 27.9576L61.9114 31.4823Z" fill="black" stroke="black" stroke-width="3" stroke-linecap="round" stroke-linejoin="round"/>
</svg>
